HIERARCHY
ROOT Hips
{
	OFFSET 0.000000 0.000000 0.000000
	CHANNELS 6 Xposition Yposition Zposition Yrotation Xrotation Zrotation
	JOINT Chest
	{
		OFFSET 0.000000 -0.009281 11.569106
		CHANNELS 3 Yrotation Xrotation Zrotation
		JOINT Chest2
		{
			OFFSET -0.000000 0.016865 9.269641
			CHANNELS 3 Yrotation Xrotation Zrotation
			JOINT Chest3
			{
				OFFSET -0.000000 0.000001 8.374491
				CHANNELS 3 Yrotation Xrotation Zrotation
				JOINT Chest4
				{
					OFFSET -0.000000 0.000001 8.374493
					CHANNELS 3 Yrotation Xrotation Zrotation
					JOINT Neck
					{
						OFFSET -0.000000 0.000002 12.152554
						CHANNELS 3 Yrotation Xrotation Zrotation
						JOINT Head
						{
							OFFSET -0.000000 0.040101 7.802319
							CHANNELS 3 Yrotation Xrotation Zrotation
							End Site
							{
								OFFSET -0.000000 0.020947 14.853096
							}
						}
					}
					JOINT RightCollar
					{
						OFFSET 2.894404 0.000001 6.791374
						CHANNELS 3 Yrotation Xrotation Zrotation
						JOINT RightShoulder
						{
							OFFSET 13.574684 0.000001 0.000000
							CHANNELS 3 Yrotation Xrotation Zrotation
							JOINT RightElbow
							{
								OFFSET 23.923903 0.000002 0.000000
								CHANNELS 3 Yrotation Xrotation Zrotation
								JOINT RightWrist
								{
									OFFSET 19.846718 0.012767 0.000000
									CHANNELS 3 Yrotation Xrotation Zrotation
									End Site
									{
										OFFSET 14.973145 0.000001 0.000000
									}
								}
							}
						}
					}
					JOINT LeftCollar
					{
						OFFSET -2.894404 0.000001 6.791374
						CHANNELS 3 Yrotation Xrotation Zrotation
						JOINT LeftShoulder
						{
							OFFSET -13.574684 -0.000001 0.000000
							CHANNELS 3 Yrotation Xrotation Zrotation
							JOINT LeftElbow
							{
								OFFSET -23.923903 -0.000002 0.000000
								CHANNELS 3 Yrotation Xrotation Zrotation
								JOINT LeftWrist
								{
									OFFSET -19.846718 0.012763 0.000000
									CHANNELS 3 Yrotation Xrotation Zrotation
									End Site
									{
										OFFSET -14.973145 -0.000001 0.000000
									}
								}
							}
						}
					}
				}
			}
		}
	}
	JOINT RightHip
	{
		OFFSET 9.469263 0.004643 0.045487
		CHANNELS 3 Yrotation Xrotation Zrotation
		JOINT RightKnee
		{
			OFFSET 0.000000 0.002661 -40.478676
			CHANNELS 3 Yrotation Xrotation Zrotation
			JOINT RightAnkle
			{
				OFFSET 0.000000 0.049106 -35.224068
				CHANNELS 3 Yrotation Xrotation Zrotation
				JOINT RightToe
				{
					OFFSET -0.000001 12.539529 -6.151390
					CHANNELS 3 Yrotation Xrotation Zrotation
					End Site
					{
						OFFSET -0.000001 5.044994 -1.291870
					}
				}
			}
		}
	}
	JOINT LeftHip
	{
		OFFSET -9.469263 0.004641 0.045487
		CHANNELS 3 Yrotation Xrotation Zrotation
		JOINT LeftKnee
		{
			OFFSET 0.000000 0.002661 -40.478676
			CHANNELS 3 Yrotation Xrotation Zrotation
			JOINT LeftAnkle
			{
				OFFSET 0.000000 0.049106 -35.224068
				CHANNELS 3 Yrotation Xrotation Zrotation
				JOINT LeftToe
				{
					OFFSET -0.000001 12.539529 -6.151390
					CHANNELS 3 Yrotation Xrotation Zrotation
					End Site
					{
						OFFSET -0.000001 5.044994 -1.291870
					}
				}
			}
		}
	}
}
MOTION
Frames: 16
Frame Time: 0.016667
12.351404 5.846897 82.933479 -5.944027 -2.157927 -108.145377 -0.108992 -3.292465 0.335329 -0.040623 -1.461058 0.129602 -0.040623 -1.461058 0.129604 -0.030155 -1.095803 0.097099 0.221516 -15.136621 -2.782079 -0.633668 8.035200 -5.123611 2.358475 25.796219 -0.031619 58.632570 40.344295 69.688372 54.970858 42.735954 69.196776 -60.474522 35.812946 -11.187999 -1.001094 15.542982 -4.693860 -58.056266 47.422301 -70.930285 -45.800469 41.010136 -60.615176 63.196762 28.030014 16.012895 -0.642622 -8.421453 -2.743954 2.453252 -4.519713 -6.463743 -1.391589 6.270689 0.772608 0.084327 0.028737 0.011492 -0.463858 -9.428753 1.851232 0.630555 -2.487186 1.297010 -0.859571 5.617083 0.667954 -0.004416 -0.060144 -0.004492 
12.372213 5.855087 82.931023 -5.942317 -2.165306 -108.131826 -0.113507 -3.264132 0.338697 -0.043105 -1.448725 0.130061 -0.043105 -1.448725 0.130061 -0.032018 -1.086553 0.097440 0.243586 -15.119879 -2.801737 -0.600451 8.066562 -5.152574 2.457964 26.004513 0.001435 58.508056 40.423693 69.318852 55.052824 42.533623 69.777342 -62.545852 35.516478 -10.508229 -1.045988 15.543187 -4.691918 -57.894931 47.445206 -70.599677 -45.387526 40.796481 -60.808826 64.117895 27.640357 15.194748 -0.656079 -8.383510 -2.726326 2.482431 -4.629836 -6.494388 -1.416787 6.332829 0.769693 0.090388 0.031435 0.014160 -0.464299 -9.416778 1.823861 0.629929 -2.543797 1.314914 -0.846910 5.669425 0.660870 -0.006836 -0.063892 -0.005950 
12.390903 5.863668 82.927971 -5.945687 -2.170723 -108.109757 -0.121339 -3.237001 0.339951 -0.047118 -1.436895 0.129655 -0.047118 -1.436895 0.129657 -0.035031 -1.077681 0.097124 0.266291 -15.097049 -2.822553 -0.566725 8.109221 -5.183634 2.517601 26.078408 -0.027902 58.497360 40.516293 69.025489 55.064326 42.200348 70.442261 -64.453428 35.101841 -9.742035 -1.102735 15.572935 -4.699382 -57.689075 47.415894 -70.192310 -44.838737 40.489423 -60.988166 65.153523 27.279373 14.122511 -0.670312 -8.333168 -2.688984 2.510781 -4.772703 -6.546310 -1.441926 6.410441 0.755138 0.097100 0.034709 0.016131 -0.466044 -9.396889 1.805747 0.628171 -2.620175 1.309103 -0.835059 5.731277 0.662732 -0.006722 -0.068288 -0.007438 
12.405907 5.872943 82.924240 -5.945477 -2.175843 -108.082689 -0.126071 -3.207319 0.339960 -0.049236 -1.424091 0.128394 -0.049236 -1.424092 0.128395 -0.036626 -1.068079 0.096176 0.280406 -15.069315 -2.838294 -0.547373 8.160789 -5.208579 2.580127 26.118268 -0.076513 58.517536 40.556502 68.721361 54.770799 41.716197 71.044834 -66.118267 34.686996 -8.926043 -1.165062 15.602399 -4.709564 -57.493268 47.362734 -69.739380 -44.190617 40.092384 -61.200565 66.149836 26.970964 12.920529 -0.685691 -8.260181 -2.668627 2.539964 -4.951803 -6.576798 -1.468242 6.501419 0.742846 0.104000 0.039552 0.015562 -0.462147 -9.367552 1.780642 0.621153 -2.703341 1.296542 -0.820913 5.795778 0.671112 -0.006528 -0.073706 -0.006299 
12.421506 5.882317 82.920235 -5.946974 -2.179929 -108.050553 -0.122101 -3.177750 0.329474 -0.047399 -1.410674 0.123151 -0.047399 -1.410674 0.123148 -0.035263 -1.058015 0.092249 0.275649 -15.038912 -2.841766 -0.558828 8.216905 -5.217777 2.685767 26.227827 -0.063361 58.438737 40.526159 68.257796 54.113642 41.059064 71.536171 -67.432661 34.253173 -7.974170 -1.214527 15.532016 -4.676479 -57.451713 47.309032 -69.395350 -43.336119 39.608229 -61.399917 66.918840 26.547436 11.572093 -0.702225 -8.184272 -2.675696 2.569842 -5.144496 -6.587910 -1.497513 6.599663 0.727775 0.111017 0.044374 0.015839 -0.460750 -9.335854 1.726242 0.613723 -2.793657 1.302466 -0.803046 5.863767 0.689740 -0.008018 -0.078552 -0.006469 
12.439143 5.895779 82.916237 -5.950302 -2.180677 -108.019442 -0.119784 -3.144128 0.322087 -0.046312 -1.395641 0.118804 -0.046312 -1.395641 0.118804 -0.034461 -1.046739 0.088996 0.267084 -15.009387 -2.840125 -0.575455 8.271405 -5.218809 2.826458 26.406276 0.006392 58.203484 40.446147 67.562326 53.276906 40.238909 72.064609 -68.452935 33.786012 -6.869464 -1.271305 15.379880 -4.639861 -57.571685 47.250074 -69.191216 -42.150416 38.997863 -61.421938 67.515860 26.026444 9.914858 -0.729229 -8.096365 -2.684123 2.605197 -5.364304 -6.601559 -1.528557 6.710765 0.714777 0.119960 0.049153 0.016192 -0.473607 -9.303769 1.643641 0.618459 -2.887980 1.339875 -0.786856 5.933175 0.707808 -0.010965 -0.081530 -0.007817 
12.460234 5.911488 82.911804 -5.962435 -2.179416 -107.986670 -0.133830 -3.119314 0.326670 -0.053190 -1.384384 0.119925 -0.053190 -1.384383 0.119926 -0.039619 -1.038297 0.089819 0.277986 -14.975301 -2.844837 -0.558227 8.334973 -5.224512 2.972217 26.542194 0.046518 57.927975 40.366305 66.796006 52.270755 39.310700 72.610689 -69.249908 33.363329 -5.667022 -1.368826 15.340801 -4.678879 -57.679848 47.168269 -68.934818 -40.564176 38.198181 -61.126676 68.057016 25.475243 7.903839 -0.762525 -8.010489 -2.673375 2.641285 -5.600232 -6.630887 -1.561796 6.832138 0.698915 0.131694 0.053231 0.016886 -0.496687 -9.283813 1.555670 0.629585 -2.976231 1.374481 -0.769833 6.001291 0.730790 -0.014385 -0.084037 -0.009006 
12.485213 5.925098 82.906654 -5.979335 -2.180150 -107.952110 -0.150964 -3.099285 0.336894 -0.061843 -1.375206 0.123579 -0.061843 -1.375206 0.123578 -0.046103 -1.031418 0.092539 0.294678 -14.940562 -2.853228 -0.531567 8.399895 -5.234920 3.068239 26.506383 0.023913 57.861900 40.355319 66.213274 50.878069 38.262709 72.966542 -69.786269 32.853592 -4.356348 -1.486363 15.337577 -4.745472 -57.758928 47.058938 -68.625561 -38.703055 37.279965 -60.690397 68.472646 24.905955 5.692986 -0.792000 -7.931748 -2.652232 2.677048 -5.838109 -6.664946 -1.601652 6.957211 0.663842 0.145157 0.056983 0.018307 -0.512324 -9.270479 1.474056 0.627912 -3.068971 1.406349 -0.747280 6.076516 0.752028 -0.017048 -0.086975 -0.009350 
12.512652 5.934821 82.900833 -5.996696 -2.178659 -107.917125 -0.162285 -3.075315 0.345140 -0.068372 -1.364519 0.125686 -0.068372 -1.364519 0.125684 -0.050996 -1.023404 0.094106 0.299066 -14.907796 -2.860021 -0.527270 8.460672 -5.246944 3.141176 26.407398 -0.016494 57.900593 40.374085 65.702110 49.194239 37.088538 73.167227 -70.132867 32.360111 -2.888074 -1.586526 15.288832 -4.794568 -57.834859 46.932176 -68.266873 -36.820136 36.302134 -60.381932 68.820276 24.423329 3.518720 -0.828419 -7.851274 -2.627678 2.727155 -6.084800 -6.706026 -1.651577 7.087873 0.633407 0.157843 0.062174 0.020409 -0.523837 -9.256829 1.405661 0.619512 -3.168507 1.440207 -0.726652 6.161041 0.754007 -0.018282 -0.091478 -0.009671 
12.532291 5.942244 82.893829 -5.964285 -2.177584 -107.919072 -0.149389 -2.998572 0.388916 -0.070986 -1.349518 0.124987 -0.070986 -1.349517 0.124987 -0.052960 -1.012152 0.093579 0.281551 -14.878481 -2.860743 -0.561570 8.514319 -5.255829 3.235464 26.357616 -0.027525 57.847454 40.365793 65.087366 47.393422 35.824551 73.373314 -70.485558 31.939505 -1.375096 -1.670682 15.174722 -4.815853 -57.958827 46.804226 -67.905106 -35.149417 35.308417 -60.357063 69.160371 24.090538 1.517697 -0.842699 -7.704090 -2.560904 2.772928 -6.337986 -6.752142 -1.721633 7.198464 0.582994 0.179863 0.075519 0.044859 -0.520298 -9.184939 1.388117 0.609448 -3.285374 1.475091 -0.709718 6.267853 0.739742 -0.019706 -0.111209 -0.010900 
12.562855 5.945999 82.887825 -5.977134 -2.175452 -107.875093 -0.140486 -2.955337 0.391627 -0.069047 -1.331532 0.123296 -0.069048 -1.331532 0.123297 -0.051515 -0.998664 0.092318 0.245311 -14.850916 -2.856363 -0.628959 8.564093 -5.262249 3.328111 26.291466 -0.026901 57.744578 40.315424 64.440499 45.592148 34.519414 73.737575 -70.906147 31.615002 0.118179 -1.771828 15.012049 -4.833656 -58.163500 46.717411 -67.577291 -33.824873 34.280696 -60.607151 69.509339 23.967593 -0.322390 -0.868903 -7.628592 -2.527831 2.819197 -6.571559 -6.786770 -1.780691 7.320609 0.524616 0.192003 0.083745 0.049429 -0.525833 -9.156284 1.342804 0.600307 -3.411933 1.492398 -0.692387 6.368176 0.733826 -0.020570 -0.113602 -0.011198 
12.598691 5.944360 82.881523 -5.994402 -2.175966 -107.827206 -0.136635 -2.908570 0.389655 -0.069074 -1.310934 0.121112 -0.069074 -1.310934 0.121114 -0.051543 -0.983214 0.090683 0.211386 -14.822702 -2.843433 -0.688803 8.615432 -5.251809 3.403293 26.149287 -0.047865 57.733267 40.227588 63.882097 43.728930 33.197253 74.206310 -71.215958 31.406412 1.627499 -1.883551 14.820392 -4.873635 -58.406047 46.707883 -67.284337 -32.784334 33.221528 -60.999791 69.847762 24.137416 -2.067569 -0.888879 -7.576665 -2.510743 2.859145 -6.778479 -6.807179 -1.839171 7.434997 0.473261 0.201903 0.089972 0.054696 -0.528657 -9.131300 1.306324 0.596061 -3.550877 1.490758 -0.677231 6.478014 0.729069 -0.023494 -0.114157 -0.012915 
12.640135 5.940884 82.874146 -6.014011 -2.172618 -107.781703 -0.138644 -2.867460 0.383862 -0.070772 -1.292605 0.118117 -0.070771 -1.292605 0.118118 -0.052826 -0.969467 0.088433 0.182031 -14.787126 -2.822241 -0.737258 8.680903 -5.224376 3.444517 26.007578 -0.096220 57.846634 40.054347 63.391676 41.724120 31.859653 74.733321 -71.311615 31.197937 3.221873 -2.014527 14.681913 -4.938637 -58.625494 46.740241 -66.979915 -31.861060 32.137672 -61.400949 70.096749 24.552964 -3.777796 -0.909510 -7.531241 -2.502824 2.890863 -6.983476 -6.813614 -1.894647 7.554354 0.414149 0.210172 0.092855 0.055772 -0.541545 -9.112902 1.292332 0.602248 -3.687226 1.475369 -0.663871 6.589137 0.721451 -0.028452 -0.112896 -0.014595 
12.686174 5.933823 82.865944 -6.031330 -2.167692 -107.743249 -0.145909 -2.823439 0.382990 -0.074672 -1.273697 0.116296 -0.074672 -1.273697 0.116293 -0.055759 -0.955288 0.087062 0.163254 -14.750707 -2.801705 -0.766167 8.748381 -5.194181 3.463083 25.814536 -0.164448 58.099952 39.865656 63.000722 39.289208 30.512733 75.140018 -71.311929 30.920331 4.777200 -2.141050 14.625621 -5.004684 -58.816268 46.729661 -66.642033 -30.830477 31.062792 -61.707822 70.259021 25.016068 -5.511818 -0.932947 -7.487574 -2.475629 2.924995 -7.184515 -6.816317 -1.952730 7.674484 0.349351 0.217496 0.094873 0.055023 -0.554756 -9.101368 1.299704 0.607863 -3.812590 1.446324 -0.650041 6.698432 0.725726 -0.032998 -0.111330 -0.014832 
12.735345 5.923771 82.857643 -6.045769 -2.161203 -107.715847 -0.151042 -2.784999 0.384296 -0.077288 -1.258032 0.115168 -0.077288 -1.258032 0.115169 -0.057726 -0.943539 0.086215 0.147014 -14.714056 -2.783235 -0.791108 8.816333 -5.166882 3.497378 25.685493 -0.195966 58.274061 39.588586 62.539302 36.498147 29.286649 75.485529 -71.216381 30.624605 6.469413 -2.242584 14.593585 -5.049320 -58.996770 46.679333 -66.288154 -29.694565 30.057511 -61.985585 70.363468 25.532366 -7.315755 -0.950343 -7.446363 -2.425516 2.950075 -7.375615 -6.818993 -2.008845 7.790352 0.268094 0.222263 0.096718 0.051981 -0.566974 -9.097533 1.296264 0.611482 -3.925111 1.419429 -0.636792 6.804094 0.736473 -0.036575 -0.108522 -0.013984 
12.788087 5.906390 82.850471 -6.057475 -2.155267 -107.694892 -0.154278 -2.743606 0.390251 -0.080530 -1.240696 0.116749 -0.080530 -1.240696 0.116752 -0.060159 -0.930538 0.087397 0.134501 -14.687606 -2.771998 -0.811393 8.865260 -5.151435 3.525699 25.503344 -0.233229 58.473960 39.298275 62.138684 33.440412 28.166271 75.717039 -71.128702 30.410926 8.450891 -2.285434 14.467541 -5.078587 -59.272409 46.627427 -66.032937 -28.398981 29.145326 -62.236670 70.383549 25.778351 -9.233339 -0.958833 -7.418251 -2.380004 2.966622 -7.541351 -6.817170 -2.064995 7.898608 0.187842 0.225630 0.096558 0.052188 -0.574905 -9.101781 1.256865 0.610425 -4.024334 1.413480 -0.621720 6.903217 0.768874 -0.040607 -0.102884 -0.013384 
